<svg xmlns="http://www.w3.org/2000/svg" xmlns:xlink="http://www.w3.org/1999/xlink" viewBox="0 0 2560 1600"><defs><style>.cls-1{fill:none;}.cls-2{font-size:24.06px;}.cls-2,.cls-9{fill:#ff865e;font-family:Stratos-Light, Stratos Light;font-weight:300;}.cls-3{letter-spacing:0em;}.cls-4{letter-spacing:0em;}.cls-5{letter-spacing:-0.02em;}.cls-6{letter-spacing:-0.02em;}.cls-7{letter-spacing:-0.02em;}.cls-8{letter-spacing:-0.01em;}.cls-9{font-size:23.95px;}.cls-10{letter-spacing:-0.02em;}.cls-11{clip-path:url(#clip-path);}</style><clipPath id="clip-path"><rect class="cls-1" x="-28.56" y="-638.58" width="2618.51" height="2061.85"/></clipPath></defs><title>text</title><g id="Layer_1" data-name="Layer 1"><text class="cls-2" transform="matrix(0.84, -0.55, 0.56, 0.83, 168.33, 1058.16)">Annet<tspan class="cls-3" x="61.45" y="0">t</tspan><tspan class="cls-4" x="69.3" y="0">e</tspan></text></g><g id="Layer_4" data-name="Layer 4"><text class="cls-2" transform="matrix(0.84, -0.55, 0.56, 0.83, 156.69, 829.67)">Ani<tspan class="cls-5" x="33.71" y="0">k</tspan><tspan x="44.51" y="0">a</tspan></text></g><g id="Layer_3" data-name="Layer 3"><text class="cls-2" transform="matrix(0.84, -0.55, 0.56, 0.83, 1050.5, 1068.79)">Daniela <tspan class="cls-6" x="81.04" y="0">D</tspan><tspan class="cls-4" x="96.61" y="0">.</tspan></text><text class="cls-2" transform="matrix(0.84, -0.55, 0.56, 0.83, 1481.44, 1069.4)">Jerem<tspan class="cls-7" x="60.95" y="0">y</tspan><tspan x="71.82" y="0"> </tspan></text><text class="cls-2" transform="matrix(0.84, -0.55, 0.56, 0.83, 1335.04, 967.72)">Dominique</text><text class="cls-2" transform="matrix(0.84, -0.55, 0.56, 0.83, 824.59, 675.04)">Catalina</text><text class="cls-2" transform="matrix(0.84, -0.55, 0.56, 0.83, 1333.2, 630.06)">Diana </text><text class="cls-2" transform="matrix(0.84, -0.55, 0.56, 0.83, 2005.73, 657.06)">Jessica L<tspan class="cls-7" x="84.48" y="0">.</tspan><tspan x="89" y="0"> </tspan></text><text class="cls-2" transform="matrix(0.84, -0.55, 0.56, 0.83, 2323.81, 740.85)"><tspan class="cls-8">R</tspan><tspan x="12.73" y="0">egina </tspan></text><text class="cls-2" transform="matrix(0.84, -0.55, 0.56, 0.83, 559.39, 548.88)">Andrea</text><text class="cls-2" transform="matrix(0.84, -0.55, 0.56, 0.83, 1056.8, 579.71)">Daniela <tspan class="cls-6" x="81.04" y="0">C</tspan><tspan x="94.54" y="0">.</tspan></text><text class="cls-2" transform="matrix(0.84, -0.55, 0.56, 0.83, 1505.62, 559.97)">Gino </text><rect class="cls-1" x="-28.56" y="-638.58" width="2618.51" height="2061.85"/><text class="cls-9" transform="matrix(0.83, -0.55, 0.55, 0.83, 1863.28, 534.88)">Jessica R<tspan class="cls-10" x="85.68" y="0">.</tspan><tspan x="90.19" y="0"> </tspan></text><g class="cls-11"><text class="cls-2" transform="matrix(0.84, -0.55, 0.56, 0.83, 2205.8, 559.74)">Joshua </text></g></g></svg>